<svg xmlns="http://www.w3.org/2000/svg" viewBox="0 0 800 500" role="img" aria-label="カフェ経費処理 業務自動化システムのデモ">
  <defs>
    <linearGradient id="bgAutomation" x1="0%" y1="0%" x2="100%" y2="100%">
      <stop offset="0%" stop-color="#cfa06a" />
      <stop offset="100%" stop-color="#8a5a30" />
    </linearGradient>
    <linearGradient id="cardAutomation" x1="0%" y1="0%" x2="0%" y2="100%">
      <stop offset="0%" stop-color="#bd8950" />
      <stop offset="100%" stop-color="#a06f3c" />
    </linearGradient>
  </defs>

  <rect width="800" height="500" fill="url(#bgAutomation)" />

  <rect x="80" y="70" width="640" height="360" rx="24" fill="url(#cardAutomation)" stroke="#fbf6ee" stroke-opacity="0.3" />

  <rect x="120" y="120" width="220" height="20" rx="10" fill="#fbf6ee" fill-opacity="0.85" />
  <rect x="120" y="158" width="500" height="14" rx="7" fill="#fbf6ee" fill-opacity="0.4" />
  <rect x="120" y="188" width="470" height="14" rx="7" fill="#fbf6ee" fill-opacity="0.4" />

  <rect x="120" y="240" width="250" height="140" rx="14" fill="#3e2e23" stroke="#fbf6ee" stroke-opacity="0.18" />
  <rect x="400" y="240" width="280" height="58" rx="12" fill="#3e2e23" stroke="#fbf6ee" stroke-opacity="0.18" />
  <rect x="400" y="322" width="280" height="58" rx="12" fill="#3e2e23" stroke="#fbf6ee" stroke-opacity="0.18" />

  <circle cx="188" cy="290" r="22" fill="#d89a52" />
  <path d="M181 278 L202 290 L181 302 Z" fill="#fbf6ee" />

  <rect x="225" y="280" width="120" height="10" rx="5" fill="#fbf6ee" fill-opacity="0.7" />
  <rect x="225" y="302" width="95" height="10" rx="5" fill="#fbf6ee" fill-opacity="0.5" />

  <rect x="430" y="262" width="95" height="14" rx="7" fill="#fbf6ee" fill-opacity="0.6" />
  <rect x="430" y="345" width="95" height="14" rx="7" fill="#fbf6ee" fill-opacity="0.6" />

  <rect x="535" y="257" width="120" height="24" rx="12" fill="#d89a52" />
  <rect x="535" y="340" width="120" height="24" rx="12" fill="#d89a52" />
</svg>
