<svg xmlns="http://www.w3.org/2000/svg" viewBox="0 0 800 500" role="img" aria-label="カフェ SNS企画 AIエージェントのデモ">
  <defs>
    <linearGradient id="bgAgent" x1="0%" y1="0%" x2="100%" y2="100%">
      <stop offset="0%" stop-color="#cfa06a" />
      <stop offset="100%" stop-color="#97612f" />
    </linearGradient>
    <linearGradient id="agentFace" x1="0%" y1="0%" x2="0%" y2="100%">
      <stop offset="0%" stop-color="#fbf6ee" />
      <stop offset="100%" stop-color="#f1ddc2" />
    </linearGradient>
  </defs>

  <rect width="800" height="500" fill="url(#bgAgent)" />
  <rect x="56" y="50" width="688" height="400" rx="32" fill="#b07e49" stroke="#fbf6ee" stroke-opacity=".35" />

  <!-- AIエージェント（洗練フレンドリー） -->
  <g transform="translate(150 150)">
    <!-- アンテナ -->
    <rect x="84" y="-28" width="12" height="42" rx="6" fill="#d89a52" />
    <circle cx="90" cy="-34" r="12" fill="#d89a52" />
    <!-- サイドの耳 -->
    <rect x="-13" y="80" width="20" height="44" rx="10" fill="#d89a52" />
    <rect x="173" y="80" width="20" height="44" rx="10" fill="#d89a52" />
    <!-- 顔 -->
    <rect x="0" y="14" width="180" height="172" rx="40" fill="url(#agentFace)" />
    <!-- 目 -->
    <circle cx="60" cy="104" r="15" fill="#34251c" />
    <circle cx="120" cy="104" r="15" fill="#34251c" />
    <circle cx="65" cy="98" r="4.5" fill="#fbf6ee" />
    <circle cx="125" cy="98" r="4.5" fill="#fbf6ee" />
    <!-- 微笑みの口 -->
    <path d="M76 142 Q90 152 104 142" fill="none" stroke="#34251c" stroke-width="5.5" stroke-linecap="round" />
  </g>

  <!-- SNS post mockup -->
  <g transform="translate(455 108)">
    <rect x="0" y="0" width="236" height="284" rx="22" fill="#fbf6ee" />
    <circle cx="36" cy="36" r="14" fill="#b5702f" />
    <rect x="58" y="26" width="88" height="10" rx="5" fill="#34251c" fill-opacity="0.55" />
    <rect x="58" y="44" width="56" height="8" rx="4" fill="#34251c" fill-opacity="0.3" />

    <rect x="18" y="68" width="200" height="120" rx="14" fill="#34251c" />
    <ellipse cx="118" cy="118" rx="34" ry="22" fill="#d89a52" fill-opacity="0.7" />
    <rect x="96" y="132" width="44" height="28" rx="10" fill="#e9c79a" fill-opacity="0.8" />
    <rect x="108" y="108" width="20" height="18" rx="6" fill="#fbf6ee" />

    <rect x="18" y="200" width="170" height="10" rx="5" fill="#34251c" fill-opacity="0.45" />
    <rect x="18" y="220" width="145" height="10" rx="5" fill="#34251c" fill-opacity="0.35" />
    <rect x="18" y="248" width="72" height="20" rx="10" fill="#b5702f" fill-opacity="0.9" />
    <rect x="98" y="248" width="88" height="20" rx="10" fill="#b5702f" fill-opacity="0.6" />
  </g>

  <text x="400" y="420" text-anchor="middle" fill="#fbf6ee" font-family="Arial, sans-serif" font-size="34" font-weight="700">
    AI AGENT
  </text>
</svg>
