<svg xmlns="http://www.w3.org/2000/svg" viewBox="0 0 800 500">
  <defs>
    <linearGradient id="bgAutomation" x1="0%" y1="0%" x2="100%" y2="100%">
      <stop offset="0%" stop-color="#133f7a" />
      <stop offset="100%" stop-color="#071730" />
    </linearGradient>
    <linearGradient id="cardAutomation" x1="0%" y1="0%" x2="0%" y2="100%">
      <stop offset="0%" stop-color="#16437f" />
      <stop offset="100%" stop-color="#0e2b56" />
    </linearGradient>
  </defs>

  <rect width="800" height="500" fill="url(#bgAutomation)" />

  <rect x="80" y="70" width="640" height="360" rx="24" fill="url(#cardAutomation)" stroke="#9dc2ff" stroke-opacity="0.28" />

  <rect x="120" y="120" width="220" height="20" rx="10" fill="#9dc2ff" fill-opacity="0.62" />
  <rect x="120" y="158" width="500" height="14" rx="7" fill="#d8e5ff" fill-opacity="0.3" />
  <rect x="120" y="188" width="470" height="14" rx="7" fill="#d8e5ff" fill-opacity="0.3" />

  <rect x="120" y="240" width="250" height="140" rx="14" fill="#0a2144" stroke="#9dc2ff" stroke-opacity="0.2" />
  <rect x="400" y="240" width="280" height="58" rx="12" fill="#0a2144" stroke="#9dc2ff" stroke-opacity="0.2" />
  <rect x="400" y="322" width="280" height="58" rx="12" fill="#0a2144" stroke="#9dc2ff" stroke-opacity="0.2" />

  <circle cx="188" cy="290" r="22" fill="#5b93ff" fill-opacity="0.9" />
  <path d="M181 278 L202 290 L181 302 Z" fill="#ffffff" />

  <rect x="225" y="280" width="120" height="10" rx="5" fill="#d8e5ff" fill-opacity="0.56" />
  <rect x="225" y="302" width="95" height="10" rx="5" fill="#d8e5ff" fill-opacity="0.4" />

  <rect x="430" y="262" width="95" height="14" rx="7" fill="#d8e5ff" fill-opacity="0.5" />
  <rect x="430" y="345" width="95" height="14" rx="7" fill="#d8e5ff" fill-opacity="0.5" />

  <rect x="535" y="257" width="120" height="24" rx="12" fill="#5b93ff" fill-opacity="0.85" />
  <rect x="535" y="340" width="120" height="24" rx="12" fill="#5b93ff" fill-opacity="0.85" />
</svg>
