<svg xmlns="http://www.w3.org/2000/svg" viewBox="0 0 800 500" role="img" aria-label="????????????????">
  <defs>
    <linearGradient id="bgRobot" x1="0%" y1="0%" x2="100%" y2="100%">
      <stop offset="0%" stop-color="#0b2d61" />
      <stop offset="100%" stop-color="#081a3a" />
    </linearGradient>
    <linearGradient id="robotFace" x1="0%" y1="0%" x2="0%" y2="100%">
      <stop offset="0%" stop-color="#d9e7ff" />
      <stop offset="100%" stop-color="#bdd4ff" />
    </linearGradient>
  </defs>
  <rect width="800" height="500" fill="url(#bgRobot)" />
  <rect x="56" y="50" width="688" height="400" rx="32" fill="#0f2b57" stroke="#9dc2ff" stroke-opacity=".35" />

  <g transform="translate(210 88)">
    <rect x="92" y="6" width="14" height="54" rx="7" fill="#9dc2ff" />
    <circle cx="99" cy="0" r="14" fill="#9dc2ff" />
    <rect x="0" y="56" width="198" height="162" rx="28" fill="url(#robotFace)" />
    <rect x="20" y="82" width="158" height="58" rx="18" fill="#0f2b57" />
    <circle cx="66" cy="111" r="16" fill="#9dc2ff" />
    <circle cx="132" cy="111" r="16" fill="#9dc2ff" />
    <rect x="58" y="157" width="82" height="14" rx="7" fill="#0f2b57" />
    <rect x="-22" y="104" width="24" height="44" rx="12" fill="#bdd4ff" />
    <rect x="196" y="104" width="24" height="44" rx="12" fill="#bdd4ff" />
  </g>

  <g transform="translate(455 132)">
    <path d="M0 24a24 24 0 0 1 24-24h188a24 24 0 0 1 24 24v90a24 24 0 0 1-24 24h-92l-33 31v-31H24A24 24 0 0 1 0 114z" fill="#e4eeff" />
    <circle cx="62" cy="68" r="11" fill="#0f2b57" />
    <circle cx="118" cy="68" r="11" fill="#0f2b57" />
    <circle cx="174" cy="68" r="11" fill="#0f2b57" />
  </g>

  <text x="400" y="420" text-anchor="middle" fill="#ffffff" font-family="Arial, sans-serif" font-size="34" font-weight="700">
    CHAT BOT
  </text>
</svg>
