<svg xmlns="http://www.w3.org/2000/svg" viewBox="0 0 800 500" role="img" aria-label="ヘアサロン AIコンシェルジュBotのデモ">
  <defs>
    <linearGradient id="bgRobot" x1="0%" y1="0%" x2="100%" y2="100%">
      <stop offset="0%" stop-color="#cfa06a" />
      <stop offset="100%" stop-color="#97612f" />
    </linearGradient>
    <linearGradient id="robotFace" x1="0%" y1="0%" x2="0%" y2="100%">
      <stop offset="0%" stop-color="#fbf6ee" />
      <stop offset="100%" stop-color="#f1ddc2" />
    </linearGradient>
  </defs>
  <rect width="800" height="500" fill="url(#bgRobot)" />
  <rect x="56" y="50" width="688" height="400" rx="32" fill="#b07e49" stroke="#fbf6ee" stroke-opacity=".35" />

  <!-- AIロボット（洗練フレンドリー） -->
  <g transform="translate(150 150)">
    <!-- アンテナ -->
    <rect x="84" y="-28" width="12" height="42" rx="6" fill="#d89a52" />
    <circle cx="90" cy="-34" r="12" fill="#d89a52" />
    <!-- サイドの耳 -->
    <rect x="-13" y="80" width="20" height="44" rx="10" fill="#d89a52" />
    <rect x="173" y="80" width="20" height="44" rx="10" fill="#d89a52" />
    <!-- 顔 -->
    <rect x="0" y="14" width="180" height="172" rx="40" fill="url(#robotFace)" />
    <!-- 目 -->
    <circle cx="60" cy="104" r="15" fill="#34251c" />
    <circle cx="120" cy="104" r="15" fill="#34251c" />
    <circle cx="65" cy="98" r="4.5" fill="#fbf6ee" />
    <circle cx="125" cy="98" r="4.5" fill="#fbf6ee" />
    <!-- 微笑みの口 -->
    <path d="M76 142 Q90 152 104 142" fill="none" stroke="#34251c" stroke-width="5.5" stroke-linecap="round" />
  </g>

  <g transform="translate(455 132)">
    <path d="M0 24a24 24 0 0 1 24-24h188a24 24 0 0 1 24 24v90a24 24 0 0 1-24 24h-92l-33 31v-31H24A24 24 0 0 1 0 114z" fill="#fbf6ee" />
    <circle cx="62" cy="68" r="11" fill="#b5702f" />
    <circle cx="118" cy="68" r="11" fill="#b5702f" />
    <circle cx="174" cy="68" r="11" fill="#b5702f" />
  </g>

  <text x="400" y="420" text-anchor="middle" fill="#fbf6ee" font-family="Arial, sans-serif" font-size="34" font-weight="700">
    CHAT BOT
  </text>
</svg>
