<svg xmlns="http://www.w3.org/2000/svg" viewBox="0 0 800 500" role="img" aria-label="?????SNS??AI??????">
  <defs>
    <linearGradient id="bgAgent" x1="0%" y1="0%" x2="100%" y2="100%">
      <stop offset="0%" stop-color="#0b2d61" />
      <stop offset="100%" stop-color="#081a3a" />
    </linearGradient>
    <linearGradient id="agentFace" x1="0%" y1="0%" x2="0%" y2="100%">
      <stop offset="0%" stop-color="#d9e7ff" />
      <stop offset="100%" stop-color="#bdd4ff" />
    </linearGradient>
  </defs>

  <rect width="800" height="500" fill="url(#bgAgent)" />
  <rect x="56" y="50" width="688" height="400" rx="32" fill="#0f2b57" stroke="#9dc2ff" stroke-opacity=".35" />

  <!-- AI agent robot -->
  <g transform="translate(210 88)">
    <rect x="92" y="6" width="14" height="54" rx="7" fill="#9dc2ff" />
    <circle cx="99" cy="0" r="14" fill="#9dc2ff" />
    <rect x="0" y="56" width="198" height="162" rx="28" fill="url(#agentFace)" />
    <rect x="20" y="82" width="158" height="58" rx="18" fill="#0f2b57" />
    <circle cx="66" cy="111" r="16" fill="#9dc2ff" />
    <circle cx="132" cy="111" r="16" fill="#9dc2ff" />
    <rect x="58" y="157" width="82" height="14" rx="7" fill="#0f2b57" />
    <rect x="-22" y="104" width="24" height="44" rx="12" fill="#bdd4ff" />
    <rect x="196" y="104" width="24" height="44" rx="12" fill="#bdd4ff" />
  </g>

  <!-- SNS post mockup -->
  <g transform="translate(455 108)">
    <rect x="0" y="0" width="236" height="284" rx="22" fill="#e4eeff" />
    <circle cx="36" cy="36" r="14" fill="#0f2b57" />
    <rect x="58" y="26" width="88" height="10" rx="5" fill="#0f2b57" fill-opacity="0.55" />
    <rect x="58" y="44" width="56" height="8" rx="4" fill="#0f2b57" fill-opacity="0.3" />

    <rect x="18" y="68" width="200" height="120" rx="14" fill="#0f2b57" />
    <ellipse cx="118" cy="118" rx="34" ry="22" fill="#5b93ff" fill-opacity="0.55" />
    <rect x="96" y="132" width="44" height="28" rx="10" fill="#9dc2ff" fill-opacity="0.7" />
    <rect x="108" y="108" width="20" height="18" rx="6" fill="#d9e7ff" />

    <rect x="18" y="200" width="170" height="10" rx="5" fill="#0f2b57" fill-opacity="0.45" />
    <rect x="18" y="220" width="145" height="10" rx="5" fill="#0f2b57" fill-opacity="0.35" />
    <rect x="18" y="248" width="72" height="20" rx="10" fill="#5b93ff" fill-opacity="0.8" />
    <rect x="98" y="248" width="88" height="20" rx="10" fill="#5b93ff" fill-opacity="0.55" />
  </g>

  <text x="400" y="420" text-anchor="middle" fill="#ffffff" font-family="Arial, sans-serif" font-size="34" font-weight="700">
    AI AGENT
  </text>
</svg>
